<?xml version="1.0" encoding="UTF-8" standalone="no"?>
<svg width="456" height="456" viewBox="0 0 456 456" version="1.1" xmlns="http://www.w3.org/2000/svg" xmlns:xlink="http://www.w3.org/1999/xlink" xml:space="preserve" xmlns:serif="http://www.serif.com/" style="fill-rule:evenodd;clip-rule:evenodd;stroke-linejoin:round;stroke-miterlimit:2;">
    <g transform="translate(0,-12)">
        <path d="M130,140 L206,332 C210,342 218,348 228,348 C238,348 246,342 250,332 L326,140 L284,140 L228,286 C227,289 221,289 220,286 L164,140 Z" fill="#F45D5D" />
        <path d="M228,304 C247,304 262,318 262,336 C262,354 247,368 228,368 C209,368 194,354 194,336 C194,318 209,304 228,304 Z" fill="#3AC4D6" opacity="0.55" />
    </g>
</svg>